
<svg version="1.1" xmlns="http://www.w3.org/2000/svg" xmlns:xlink="http://www.w3.org/1999/xlink" x="0px" y="0px" width="66.7px"
height="64.8px" viewBox="0 0 66.7 64.8" style="enable-background:new 0 0 66.7 64.8;" xml:space="preserve">
<style type="text/css">
	.st0{fill-rule:evenodd;clip-rule:evenodd;fill:#00000 !important ;}
	.st1{fill:#000000 !important;}
</style>
<defs>
</defs>
<path id="XMLID_45_" class="st0" d="M1,55L1,55l1.8-0.9c-0.1,0.4-0.2,1.1-0.3,1.3c-0.4,0.8-1,3-1.3,4l0.5,0.1
	C2.2,58.3,2,58,2.6,56.5l1.2-2.7l3.4-0.1c0,0.4-0.2,1.1-0.5,1.4l0,0.2c-0.2,0.9-0.8,2-1.1,2.9c-0.5,1.8-0.4,1.2-0.4,3.1
	c1.3,0.1,0.8-1.3,0.9-1.6c0-0.2,0.1-0.5,0.2-0.8c0.2-1.1,0.5-1.9,0.8-3c0.5-2,0.7-2.4,2.9-2.5c0.7,0,0,0.2,1.4-0.1
	c-0.1,0.3-0.2,0.3-0.3,0.6c-0.3,0.6-0.6,0.8-0.8,1.1c-0.1,0.2-0.2,0.5-0.3,0.7c-0.3,0.7-0.5,0.7-0.5,1.7c0,0.5,0,0.3,0.4,0.9
	c0.9,0.1,1.4-0.6,1.7-1.3c0.7-1.4,0.5-1.1,0.9-1.8l0.2-0.3l0-0.3c0.1-1.5,0.4-1.2,2.9-1.4c-0.1,0.7-1.1,3.5-1.4,4.3l0.2,0.3
	c0.9,0,1.1-0.5,1.4-1.1l1.2-1.4c-0.1,1.2-0.5,1.4-0.3,2.7c1,0.6,1.5-1.2,2.1-1.5c0.3,1.1,0.3,2.3,1.8,1.8c0.9-0.3,1.9-1.3,2.1-1.4
	c0.6,0.7,0.6,1.1,1.6,1c0.9-0.1,1-0.6,1.7-0.9c0.5-0.3,2.5-1.7,2.9-2.3l-0.3-0.1c-0.5,0.2-0.8,0.6-1.3,0.9c-0.7,0.4-3.2,2.6-3.7,1.5
	c-0.4-0.7,0-1.1,0.4-1.4c0.4-0.2,0.8-0.6,1.1-0.9c0.2-0.3,0.3-0.2,0.5-0.5c0.5-0.6,0.6-0.9,1-1.4c0.3-0.5-0.3,0.4,0.1-0.2
	c0.1-0.2,0.1,0,0.2-0.3L25.7,52c-0.5,0.4-1.3,0.6-2,1.7c-1,1.5-0.6,0.5-1.3,2.7l-2.7,1.2l0.2-3.1c-0.8-0.5-1,0.3-1.3,0.8l-1.3,1.4
	c0.1-0.5,0.4-1.2,0.5-1.6c0.1-0.3,0.6-1.3,0.4-1.5c-0.1-0.2-0.8-0.3-1.2,0.4c-0.4,0.6-1.1,1.3-1.7,1.8l0.8-2.9c-2.4-0.3-5.5,0-8,0.1
	c0-0.6,0.9-2.3,1.1-3.1c0.1-0.3,0.3-0.8,0.5-0.9c0.2-0.5,0.4-1,0.7-1.4c0.2-0.4,0.3-0.3,0.4-0.4c0.2-0.3,0.2-0.7,0.2-1.1l-0.8-0.3
	l-0.4,0.9c-0.1,0.6-0.2,0.5-0.4,0.9c-0.2,0.3-0.2,0.7-0.3,1C9.2,49,9,49.2,8.9,49.5c-0.3,0.6,0.2-0.1-0.4,0.9
	c-0.2,0.3-0.2,0.6-0.3,1C8,52,7.7,52.6,7.5,53.2l-3.6,0.1L4.7,51c0.3-1.1,1.6-2.6,1.7-3.5c-1.2-0.1-0.8-0.1-1.1,0.5
	c-0.1,0.3-0.2,0.2-0.3,0.6c-0.1,0.5,0.1,0.3-0.2,0.6c-0.4,0.5-0.3,0.5-0.5,1.2C4.3,50.8,4,51,3.8,51.5c-0.2,0.3-0.4,0.9-0.5,1.2
	c-0.2,0.7-0.1,0.7-0.8,0.8c-1,0.1-1.8,0.1-2.5,0.7l0.8,1.2L1,55z M23.8,54.6c0.1-0.4,0.8-1.1,1.3-1.2L24.5,54
	C24.2,54.3,24.1,54.5,23.8,54.6z M10.2,57.3c0-1.3,1.4-3.3,1.7-3.4C11.6,54.9,11.2,57.1,10.2,57.3z"/>
<path id="XMLID_40_" class="st0" d="M45.4,52c-0.8-0.1-1.9,0.8-2.3,1.3c-0.2,0.3-0.9,1.2-1,1.5c-0.1,0.2-0.1,0.3-0.2,0.5
	c-0.2,0.2-0.2,0.1-0.3,0.4c-0.2,0.8,0.2,1.7,0.5,2c0.9,0.6,1.8,0,2.5-0.5c0.4-0.3,1.3-0.7,2.1-1.5c0.4-0.4,1.1-0.8,1.6-1
	c-0.1,1.1-0.4,0.6-1,1c-0.3,0.2,0,0.1-0.3,0.3c-0.2,0.2-0.3,0.1-0.6,0.6c-0.2,0.4-0.2,0.6-0.2,1.1c0.1,0.1,0.1,0,0.1,0.2
	c0.8,0.6,1.1,1,2,0.1c0.6-0.6,0.3-0.3,0.5-0.8l0.4-1.5c0.1-0.1,2.2-0.8,2.4-0.9c-0.1,0.7-1.1,1.6-0.8,2.4c0.5,1.2,1.4,0.5,2.2,0.2
	c0.2-0.3,1-0.7,1.3-0.9c-0.3,1.3-0.8,0.1-0.2,2c1,0.2,2-0.9,2.9-1.6c0,0.4,0,0.4-0.1,0.7c-0.3,0.8-0.4,1.1-0.5,1.9
	c-0.7,0.4-0.2,0.2-0.6,1l-0.2,0.4c-0.2,0.3-0.1,0.1-0.2,0.4l-0.6,1c-0.4,0.6-1.7,1.7-2.6,1.8c-1.9,0.4-2.6-2.7-2.1-4.3
	c0-0.2,0.3-0.6,0.4-0.7l0.4-0.7L50.9,58c-0.3,0-0.3,0-0.5,0.4c-0.4,0.6-0.8,1-0.7,2.3c0,0.3,0,0.1,0,0.5l0,0.3
	c-0.1,0.6,0,0.4,0.1,0.7c0.2,0.6-0.5,0.3,0.3,1.4c0.3,0.4,0.1,0.6,0.9,1c0.5,0.3,1,0.4,1.6,0.3c0.4-0.1,0.4-0.1,0.6-0.3
	c0.5-0.5,0.7-0.2,1.2-0.8c0.3-0.4,0-0.3,0.4-0.6c0.3-0.3,0.2-0.1,0.5-0.5l1-1.5c0.3-0.6,0.6-1.1,0.8-1.8c0.2-0.8,0.2-0.5,0.3-0.7
	c0.1-0.3,0.1-0.5,0.2-0.8c0.2-0.5,0.4-0.8,0.6-1.4c0.5-1.6,0.3-0.6,0.6-1.4c0.2-0.6,0.5-0.8,0.8-1.2l0.5-1.3
	c-0.2-0.3-0.4-0.3-0.7-0.1c-0.2,0.1-0.5,0.3-0.8,0.5c-0.8,0.4-0.7,0.7-1.3,1.1l-0.7,0.6c-0.2,0.3-0.1,0.1-0.3,0.3
	c0,0-0.2,0.2-0.3,0.2c-0.4,0.3-0.2,0-0.6,0.2c-0.7,0.3-1.5,1.2-2.9,1.8c-0.6,0.3-0.6,0.1-0.6,0l0.6-2.1c0.3-0.6,1.2-0.7,1.1-1.8
	l-1.1,0.7c-0.3,0.5-0.8,0.5-1.4,0.6l-1.8,0.5l0.3-1.6c0.3-0.8,0.7-0.3,0.7-1.1l-1.5,0.3c-0.1,0.3-0.2,0.7-0.3,1.1
	c-0.2,0.6-1.8,1.6-2.3,1.9c-1.1,0.6-1.1,0.9-1.6,1.1c-0.4,0.2-1.5,0.9-1.9,0.4c-0.2-0.2-0.3-0.7-0.1-1.1c0.1-0.3,1.5-1.1,2.2-2
	l1.2-1.6L45.4,52z M43,54.6c0.1-0.3,0.3-0.5,0.5-0.7c0.2-0.2,0.4-0.4,0.7-0.5C44,53.7,43.4,54.4,43,54.6z M54.8,57.5
	c0.1-1,1-1.5,1.4-2.1c0.4-0.6,0.3-0.5,0.9-0.8c0.2-0.1,0,0,0.2-0.1c0.8-0.6,0.1-0.7,0.8-0.6l-0.4,1.3C57.2,56.3,55.6,57.5,54.8,57.5
	z M47.1,57.6c0-0.5,0.1-0.9,0.4-1.2c0.2-0.2,0.6-0.5,0.9-0.5C48.4,56.7,47.8,57.8,47.1,57.6z"/>
<path id="XMLID_39_" class="st0" d="M59.9,56.6l0,0.1c-0.1,0.5-0.1,0.5,0.1,0.9l1.6-1.1c0.4-0.5,0.8-1.1,1.3-1.4l-0.2,2.4
	c0.2,0.7,0.5,1.3,1.2,1.2c0.9,0,1.4-0.6,1.8-0.8c0.5-0.3,0.4-0.2,0.7-0.6c0.2-0.3,0.4-0.4,0.5-0.7l-0.3,0.1c-0.7,0.4-1,0.8-1.3,0.8
	c-0.6,0.2-1.4,0.7-1.7-0.1c-0.7-1.4,0.9-3.1,1-4.1c-1.3-0.3-0.5,0.1-1.1,0.2L63,53.9c-0.1,0.1-0.1,0.2-0.3,0.3l-1.7,1.5l0.3-2.8
	l-1,2.8C60.2,56.3,60.3,56.3,59.9,56.6"/>
<path class="st0" d="M41.1,52.7c0-0.3,0-0.2,0.2-0.4c0.3-0.4,0.6-1.2,0.7-1.6c0.8-3.9-4.9-3.2-5.3-3.5c-1,0.1-0.4-0.1-1.5,0.3
	c-1.1,0.4,0.3-0.5-2.6,1.3l0,0.6l1.3,1l-0.2-1c0.1-0.2,0.3-0.3,0.4-0.6c0.3-0.5,0-0.4,0.5-0.6l1.6-0.5c-0.1,1.7-0.3,1.5-0.6,2.1
	c-0.4,0.9-0.4,1.5-1.1,2.9c-0.2,0.5-0.1,0.6-0.3,1.1c-0.1,0.2-0.3,0.5-0.5,0.8c-0.2,0.4-0.3,0.8-0.3,1.2l-1.3,2.7
	c0.2,0.1,0.5,0.3,0.8,0.3c0.1,0,0.3-0.1,0.4-0.2l0.3-0.2c0,0,0,0,0-0.1c1.1-0.2,1.6-0.9,2.4-1.4c0.7-0.5,0.3,0.3,2.3-1.6l2-1.9
	c0.5-0.3,1.1-0.2,1.4-0.4l1.4-0.5L41.1,52.7z M37.9,55c-0.2,0.2-0.3,0.4-0.5,0.6c-0.3,0.2-0.5,0.2-0.7,0.5c-0.6,0.7-2,1.2-2.8,1.7
	c-0.2-0.1,0,0.1-0.1-0.3c0.2-0.2,0.2-0.5,0.3-0.8c0.2-0.4,0.4-0.4,0.4-0.6c0.5-0.2,1.5-1,2.1-1.4c0.5-0.3,0.7-0.3,1.1-0.6
	c0.4-0.3,0.9-0.4,1.3-0.2C39,54.7,38.5,54.5,37.9,55z M39.2,53.1c-0.5,0.2-1.4,0.7-1.6,0.8c-1.5,0.2-2.7,1.6-3.2,1.7
	c-0.3-0.5,0.3-1.1,0.5-2c0.2-0.7,1.9-4.8,2.3-5.9c0.4-0.1,0.6,0,1,0.1c0.4,0.1,1.5-0.2,2.7,0.8c1.2,1,0.3,2.7-0.2,3.7
	C40,53.6,40.1,52.7,39.2,53.1z"/>
<path id="XMLID_38_" class="st0" d="M52.9,50.3l0.4,0.8c0.7-0.1,0.2-0.4,1.5-0.8c0.8-0.2,1.2-0.2,1.7-0.6c-0.3-0.2-1.6-0.1-1.9,0.1
	c-0.5,0.1-0.3,0.2-0.8,0.2C53.4,50.1,53.1,50.1,52.9,50.3"/>
<path id="XMLID_37_" class="st1" d="M29,0c-5.4,0-9.7,4.1-9.7,9.2v18.7h5.7V8.4c0-2.1,1.8-3.8,4.1-3.9h11.9V11c0,3.2-1.8,5-4.2,5H28
	v4.4h7.8c7.1,0,9.7-3.6,9.7-9.4V0H29z"/>
<path id="XMLID_36_" class="st1" d="M9.2,32.3c-2.1,0-3.9,1.7-3.9,3.9v7.9h2.3v-8.2c0-0.9,0.7-1.6,1.6-1.7h4.7V37
	c0,1.3-0.7,2.1-1.7,2.1H8.8v1.8h3.1c2.8,0,3.9-1.5,3.9-3.9v-4.6H9.2z"/>
<path id="XMLID_35_" class="st1" d="M65.7,35.3c0-1.7-0.7-2.8-2.6-2.8h-5.9v8.3H59v-6.8l3.6,0c0.7,0,1.2,0.5,1.2,1.2
	c0,0.1,0,0.3,0,0.3v5.4h2L65.7,35.3z"/>
<path id="XMLID_24_" class="st1" d="M35.6,40.7c-2,0-2.7-0.9-2.7-2.6v-4.3H31v-1.4h1.9v-2.1H35v2.1h3v1.4h-3v3.8
	c0,0.8,0.2,1,0.6,1.3c0.4,0.2,0.9,0.2,2,0.2h0.3v1.6H35.6z"/>
<path id="XMLID_19_" class="st1" d="M25.8,33c-1-0.7-2.2-1.1-3.7-1.1c-1.8,0-3.2,0.5-4.1,1.4c-0.8,0.8-1.2,1.8-1.2,3
	c0,1.2,0.4,2.2,1.1,3c0.9,1,2.3,1.5,4.2,1.5c1.7,0,3-0.4,4-1.3c0.9-0.8,1.4-1.9,1.4-3.2C27.5,35,26.9,33.8,25.8,33z M24.1,39
	c-0.6,0.4-1.2,0.6-2,0.6h0c-0.9,0-1.7-0.3-2.2-0.9c-0.6-0.6-0.9-1.3-0.9-2.2c0-0.9,0.3-1.7,0.9-2.3c0.6-0.6,1.4-0.8,2.3-0.8
	c0.9,0,1.6,0.3,2.2,0.8c0.6,0.6,0.9,1.4,0.9,2.3C25.3,37.5,24.9,38.4,24.1,39z"/>
<path id="XMLID_15_" class="st1" d="M54.8,33c-1-0.7-2.2-1.1-3.7-1.1c-1.8,0-3.2,0.5-4.1,1.4c-0.8,0.8-1.2,1.8-1.2,3
	c0,1.2,0.4,2.2,1.1,3c0.9,1,2.3,1.5,4.2,1.5c1.7,0,3-0.4,4-1.3c0.9-0.8,1.4-1.9,1.4-3.2C56.5,35,55.9,33.8,54.8,33z M53.1,39
	c-0.6,0.4-1.2,0.6-2,0.6c0,0,0,0,0,0c-0.9,0-1.7-0.3-2.2-0.9c-0.6-0.6-0.9-1.3-0.9-2.2c0-0.9,0.3-1.7,0.9-2.3
	c0.6-0.6,1.4-0.8,2.3-0.8c0.9,0,1.6,0.3,2.2,0.8c0.6,0.6,0.9,1.4,0.9,2.3C54.3,37.5,53.9,38.4,53.1,39z"/>
<polygon id="XMLID_10_" class="st1" points="30.1,40.5 30.1,30.3 28.2,30.3 28.2,40.7 30.1,40.7 "/>
<path id="XMLID_1_" class="st1" d="M42.9,32.4h-4.2v8.3h1.8v-6.9l1.8,0c0.7,0,1.2,0.6,1.2,1.3c0,0.1,0,0.3,0,0.3h1.8
	C45.4,33.6,44.4,32.4,42.9,32.4z"/>
</svg>
